<?xml version="1.0" encoding="UTF-8"?>
<svg version="1.1" xmlns="http://www.w3.org/2000/svg" width="5120" height="2774">
<path d="M0 0 C0.95471191 0.00902344 1.90942383 0.01804687 2.89306641 0.02734375 C13.98034057 0.29726217 23.19104242 3.30705225 33.1875 8 C33.78804199 8.27328125 34.38858398 8.5465625 35.00732422 8.828125 C47.71114303 15.21879639 58.07816098 27.09546234 68.00396729 37.04231262 C69.35304529 38.38692734 70.70254979 39.73111427 72.0524385 41.07491511 C75.72707152 44.73548996 79.39554788 48.40217885 83.06293631 52.07000983 C87.03211894 56.03753353 91.00700654 59.99933526 94.9810791 63.96195984 C103.65133539 72.60945595 112.31420531 81.26432611 120.97562122 89.92067552 C126.38897816 95.33076693 131.80396425 100.73922567 137.21929169 106.14734459 C152.23007723 121.13858102 167.23933477 136.13134144 182.24176407 151.13094044 C182.72059134 151.60967365 183.19941861 152.08840686 183.6927558 152.58164714 C185.63294562 154.5214585 187.57312821 156.4612771 189.51330906 158.40109742 C190.97338922 159.86090586 192.43347185 161.32071182 193.89355469 162.78051758 C194.37601905 163.26289392 194.85848342 163.74527026 195.35556791 164.24226407 C210.52094667 179.40473623 225.69589845 194.5575717 240.87792969 209.70336914 C257.96228234 226.7469482 275.03803375 243.7990708 292.10217452 260.86289138 C301.12772824 269.88786121 310.15717363 278.90885727 319.19690704 287.91962624 C326.89026877 295.58844899 334.57492502 303.26586512 342.24851111 310.95447782 C346.16030959 314.87343295 350.07597208 318.78830278 354.00272369 322.69227982 C357.60338287 326.27225561 361.19211452 329.8637688 364.77204177 333.46447273 C366.06287439 334.75878214 367.35786677 336.04896048 368.65760258 337.33432911 C385.13125036 353.63768082 396.44423725 372.20354312 396.6875 396 C396.70609617 406.5482568 394.56253345 415.48552859 391.328125 425.45703125 C388.52522343 434.10359688 386.28654345 442.89376697 384 451.6875 C383.56622335 453.34486659 383.13222481 455.00217511 382.69799805 456.65942383 C380.22471806 466.116841 377.78448551 475.5823184 375.48193359 485.08300781 C374.22454966 490.23840069 374.22454966 490.23840069 373.125 492.4375 C365.865 492.4375 358.605 492.4375 351.125 492.4375 C352.44685513 484.62091127 354.17837292 477.05158762 356.27734375 469.41015625 C356.72854332 467.7449015 356.72854332 467.7449015 357.18885803 466.04600525 C358.142459 462.52949067 359.10219086 459.01468795 360.0625 455.5 C361.0180517 451.98857121 361.97228899 448.47679023 362.9254303 444.96470642 C363.51592298 442.79039622 364.10796519 440.61650596 364.70188904 438.44313049 C366.60271806 431.46344248 368.39646774 424.46181144 370.125 417.4375 C356.29859473 410.75637432 342.47162478 404.07664869 328.625 397.4375 C320.23599945 393.41509042 311.85370056 389.37901332 303.47659302 385.33190918 C299.80429739 383.55801238 296.13135383 381.78545732 292.45848083 380.01275635 C289.55913441 378.61323265 286.66029655 377.21267179 283.76220703 375.81054688 C271.84115309 370.04385092 259.88670651 364.38732458 247.81225586 358.94873047 C240.46028152 355.62362228 233.23756569 352.08383568 226.05029297 348.41845703 C222.64407407 346.68295265 219.2293445 344.96447333 215.8125 343.25 C215.15072754 342.91790527 214.48895508 342.58581055 213.80712891 342.24365234 C208.30914358 339.49947403 202.74206492 336.9287199 197.125 334.4375 C196.96717041 335.03723633 196.80934082 335.63697266 196.64672852 336.25488281 C194.31726776 344.95992205 191.70167646 353.57283612 189.0625 362.1875 C188.70325943 363.36285309 188.70325943 363.36285309 188.33676147 364.56195068 C184.76464612 376.24104791 181.08422554 387.88120785 177.309021 399.49609375 C174.53223784 408.03954203 171.81341365 416.59646518 169.1875 425.1875 C166.08190235 435.34616706 162.93364787 445.49056619 159.75 455.625 C159.39793488 456.74584991 159.39793488 456.74584991 159.03875732 457.88934326 C155.84575369 468.04666415 152.59994262 478.18531669 149.3125 488.3125 C144.82936547 502.12567068 140.51742944 515.99002553 136.21887207 529.86160278 C131.29021271 545.76128435 126.23058085 561.61311305 121.09130859 577.44580078 C119.47157905 582.46049654 117.90048769 587.48951246 116.3425293 592.52368164 C115.28646284 595.92740878 114.21387149 599.32572668 113.13751221 602.7230835 C110.67676875 610.4902094 108.23999114 618.26443384 105.828125 626.046875 C105.54970764 626.94513 105.27129028 627.84338501 104.98443604 628.76885986 C104.41034511 630.6212113 103.83626897 632.47356732 103.26220703 634.32592773 C98.58203627 649.42121709 93.84802876 664.4941345 88.95849609 679.52294922 C85.20874238 691.08939164 81.60173303 702.69923198 78 714.3125 C66.29213016 752.06275486 66.29213016 752.06275486 61.125 767.4375 C66.2194801 763.76947433 71.01246361 759.86014355 75.75 755.75 C80.44580899 751.67886864 85.21059841 747.74184126 90.125 743.9375 C95.61115727 739.6877683 100.90356048 735.25533345 106.1496582 730.71362305 C110.26595761 727.15522953 114.45916135 723.7164767 118.7265625 720.33984375 C126.86601911 713.88395552 134.83469456 707.20848827 142.85229492 700.60229492 C148.59933947 695.86773628 154.35846913 691.14831214 160.125 686.4375 C161.95845036 684.93764304 163.79178171 683.4376406 165.625 681.9375 C172.95833333 675.9375 180.29166667 669.9375 187.625 663.9375 C188.97851562 662.82955078 188.97851562 662.82955078 190.359375 661.69921875 C192.2434081 660.15846287 194.12888412 658.6194701 196.015625 657.08203125 C196.95921875 656.31246094 197.9028125 655.54289062 198.875 654.75 C199.77605469 654.01523438 200.67710937 653.28046875 201.60546875 652.5234375 C203.83542152 650.67724404 206.01656546 648.7897373 208.1875 646.875 C211.125 644.4375 211.125 644.4375 213.125 644.4375 C215.54575479 669.3686142 215.54575479 669.3686142 210.5 675.515625 C207.64419649 678.17036259 204.44776925 680.24256619 201.10058594 682.2265625 C197.89420515 684.19191701 195.04437191 686.57603591 192.125 688.9375 C190.96440991 689.8409602 189.80294742 690.74330082 188.640625 691.64453125 C184.3423763 695.02189818 180.21958517 698.59577962 176.0871582 702.17236328 C172.11279257 705.6073308 168.0668534 708.92580812 163.9453125 712.18359375 C160.16036086 715.20840967 156.4246475 718.29143617 152.6875 721.375 C151.94830322 721.98480713 151.20910645 722.59461426 150.44750977 723.22290039 C148.99996907 724.41711745 147.55245843 725.61137096 146.10498047 726.80566406 C141.78904821 730.362716 137.45628615 733.89917239 133.125 737.4375 C131.29154964 738.93735696 129.45821829 740.4373594 127.625 741.9375 C120.29166667 747.9375 112.95833333 753.9375 105.625 759.9375 C104.70976562 760.68644531 103.79453125 761.43539062 102.8515625 762.20703125 C101.09682216 763.64249935 99.34164845 765.07743796 97.5859375 766.51171875 C91.9215921 771.14073818 86.27059447 775.78563906 80.625 780.4375 C74.13594999 785.78435204 67.63655167 791.11806318 61.125 796.4375 C59.29154964 797.93735696 57.45821829 799.4373594 55.625 800.9375 C48.29166667 806.9375 40.95833333 812.9375 33.625 818.9375 C32.70976562 819.68644531 31.79453125 820.43539062 30.8515625 821.20703125 C29.09682216 822.64249935 27.34164845 824.07743796 25.5859375 825.51171875 C19.92159107 830.14073902 14.27075545 834.78583328 8.625 839.4375 C7.15757603 840.64586242 5.69012855 841.85419628 4.22265625 843.0625 C1.77061245 845.08149807 -0.68001949 847.10217469 -3.12890625 849.125 C-8.2814127 853.36739752 -13.4854075 857.4995456 -18.875 861.4375 C-17.53258197 864.40422354 -16.03183032 866.55683874 -13.78515625 868.90625 C-13.17148193 869.55343994 -12.55780762 870.20062988 -11.92553711 870.86743164 C-11.26948486 871.5505542 -10.61343262 872.23367676 -9.9375 872.9375 C-8.56456218 874.38360021 -7.19216978 875.83021843 -5.8203125 877.27734375 C-4.80759277 878.34251221 -4.80759277 878.34251221 -3.77441406 879.42919922 C-1.25593139 882.09205764 1.21834695 884.79130225 3.6875 887.5 C7.80358733 892.00751317 11.95515499 896.47969159 16.125 900.9375 C22.16765474 907.39926057 28.15753984 913.90625364 34.125 920.4375 C36.18670047 922.68823328 38.2495921 924.93787342 40.3125 927.1875 C41.24351071 928.20310563 42.17450236 929.21872874 43.10546875 930.234375 C43.77191406 930.96140625 44.43835937 931.6884375 45.125 932.4375 C57.37983886 929.6411803 69.50552696 926.54755044 81.59350586 923.09985352 C88.90499943 921.026512 96.2438567 919.12121789 103.625 917.3125 C111.01981949 915.49954971 118.3322676 913.54895263 125.61523438 911.33154297 C132.66562111 909.21474025 139.80642482 907.47479025 146.96289062 905.75585938 C152.7725867 904.34225958 158.50711249 902.75826964 164.234375 901.046875 C172.46964878 898.58904369 180.75824984 896.38923488 189.08642578 894.27001953 C191.41657717 893.6769172 193.74546046 893.07901536 196.07421875 892.48046875 C197.57545101 892.09608138 199.07675052 891.71195652 200.578125 891.328125 C201.26457092 891.15210754 201.95101685 890.97609009 202.65826416 890.79473877 C206.13917182 889.91047287 209.59963867 889.14257227 213.125 888.4375 C213.125 895.6975 213.125 902.9575 213.125 910.4375 C201.90352641 913.80394208 201.90352641 913.80394208 197.71484375 914.8671875 C196.79711182 915.10244141 195.87937988 915.33769531 194.93383789 915.58007812 C193.98629639 915.82177734 193.03875488 916.06347656 192.0625 916.3125 C185.23207921 918.07124744 178.43685043 919.88931798 171.6875 921.9375 C163.85559443 924.30860104 155.93431642 926.2575385 147.98852539 928.20703125 C142.15376832 929.64896725 136.37435169 931.1867151 130.625 932.9375 C123.84482026 935.00219128 117.00800372 936.74888261 110.125 938.4375 C103.32499607 940.10583378 96.57092676 941.82715117 89.875 943.875 C81.14291193 946.54168558 72.28345834 948.66827995 63.41992188 950.84912109 C56.36420087 952.59593504 49.38333041 954.46827722 42.43359375 956.59375 C35.35203123 958.73078958 28.16948235 960.44526122 20.98730469 962.20727539 C15.15297882 963.64921377 9.37395332 965.18683642 3.625 966.9375 C-3.15517974 969.00219128 -9.99199628 970.74888261 -16.875 972.4375 C-23.67502081 974.10583792 -30.42899363 975.82738432 -37.125 977.875 C-45.83518579 980.53201368 -54.66833525 982.66836811 -63.50756836 984.84912109 C-70.79947627 986.65331462 -78.05296695 988.54223857 -85.27880859 990.59375 C-91.30863154 992.30022475 -97.3691516 993.8741708 -103.4375 995.4375 C-110.1007869 997.15647755 -116.72669304 998.94204474 -123.3125 1000.9375 C-131.14452998 1003.3082353 -139.0656578 1005.25753218 -147.01147461 1007.20703125 C-152.8462406 1008.64896946 -158.625602 1010.18685488 -164.375 1011.9375 C-172.08318688 1014.2829373 -179.87511729 1016.21185578 -187.69970703 1018.12792969 C-195.44164641 1020.03912489 -203.10786274 1022.15279608 -210.74902344 1024.43334961 C-232.69940377 1030.9036642 -252.89685641 1029.88560175 -273.3984375 1019.609375 C-282.07058098 1014.54006461 -289.31269724 1007.28950459 -296.33779907 1000.20848083 C-297.23499676 999.31228643 -298.13219445 998.41609203 -299.05657995 997.49274021 C-301.51998248 995.03184412 -303.97716716 992.56482385 -306.43329859 990.09667361 C-309.09356542 987.42563473 -311.75970342 984.76046706 -314.42512512 982.09457397 C-319.03519282 977.48215271 -323.6416519 972.86615328 -328.24568558 968.24770927 C-334.91040872 961.56222624 -341.58119723 954.88282146 -348.25353472 948.20493878 C-359.09169045 937.35754294 -369.92574067 926.50605676 -380.75683594 915.65161133 C-381.40402707 915.00302688 -382.05121821 914.35444243 -382.7180212 913.6862039 C-383.36601667 913.0368129 -384.01401214 912.3874219 -384.68164384 911.71835238 C-393.87135577 902.50886678 -403.06203952 893.30035251 -412.25390625 884.09301758 C-413.22440861 883.12087895 -413.22440861 883.12087895 -414.21451707 882.12910115 C-425.01156199 871.31401855 -435.81064902 860.5009765 -446.61077821 849.68897396 C-453.26384629 843.02832914 -459.91483186 836.36561699 -466.56310473 829.70018578 C-471.11825321 825.13344692 -475.67511261 820.5684202 -480.23330523 816.00471979 C-482.86042295 813.37427981 -485.48669221 810.74300674 -488.1107235 808.10948753 C-490.95981705 805.25011101 -493.81281702 802.39466338 -496.66616821 799.53953552 C-497.48816196 798.71326469 -498.31015571 797.88699386 -499.15705836 797.03568453 C-503.3509393 792.84591618 -507.62799595 788.83135766 -512.12058377 784.96376914 C-514.38885964 782.99046349 -516.53235863 780.91197167 -518.6622467 778.79069519 C-519.95093407 777.51057304 -519.95093407 777.51057304 -521.26565552 776.20458984 C-522.17967133 775.29169189 -523.09368713 774.37879395 -524.03540039 773.43823242 C-525.02994898 772.44832372 -526.02469029 771.4586086 -527.01960754 770.46907043 C-529.6997062 767.80197931 -532.37656366 765.13165947 -535.05239797 762.46029067 C-536.72916034 760.7864761 -538.40650102 759.11324313 -540.08401299 757.44017982 C-545.34715751 752.19067535 -550.60832089 746.93919741 -555.8665877 741.684807 C-561.91002706 735.64584935 -567.95995301 729.61349136 -574.0156098 723.5867855 C-578.71587014 718.90820905 -583.41028432 714.22381812 -588.10038179 709.53505403 C-590.89313732 706.74334109 -593.68821401 703.95405611 -596.48942757 701.17082787 C-599.12518444 698.55166984 -601.7535393 695.92529558 -604.37664604 693.29347038 C-605.78604081 691.88295076 -607.20280636 690.47980774 -608.61987305 689.07699585 C-624.34479633 673.24980236 -634.23734196 653.73140791 -634.18269348 631.13781738 C-634.07033899 626.10333794 -633.42959069 621.36254429 -632.2734375 616.45703125 C-632.09890549 615.69563843 -631.92437347 614.93424561 -631.74455261 614.14978027 C-629.1767217 603.1736555 -626.15301469 592.31105385 -623.1875 581.4375 C-622.24308842 577.9561457 -621.30020103 574.47438092 -620.35742188 570.99258423 C-619.733842 568.68987211 -619.10982242 566.38727901 -618.48535156 564.08480835 C-615.95541816 554.75313271 -613.4647964 545.41156361 -611 536.0625 C-610.64530853 534.71873816 -610.29057272 533.37498802 -609.93579102 532.03125 C-609.25355955 529.44698855 -608.571547 526.86266966 -607.88964844 524.27832031 C-606.30960504 518.29727056 -604.72279247 512.31803619 -603.13128662 506.34002686 C-602.65336702 504.54409777 -602.17650367 502.7478877 -601.69970703 500.95166016 C-600.00310346 494.5827443 -598.26470581 488.2269961 -596.4921875 481.87890625 C-593.92290205 472.66923595 -591.45310219 463.43419013 -588.99871826 454.19332886 C-587.68909794 449.26364979 -586.37539775 444.33505701 -585.0625 439.40625 C-584.52473621 437.38671965 -583.98697577 435.3671884 -583.44921875 433.34765625 C-581.05433693 424.3554697 -578.65670391 415.36403048 -576.25 406.375 C-576.02449463 405.53248688 -575.79898926 404.68997375 -575.56665039 403.82192993 C-572.16953621 391.14128598 -568.67256836 378.49079126 -565.12997437 365.85012817 C-561.57703254 353.15511175 -558.23391689 340.41257065 -555.00537109 327.63134766 C-553.04457584 319.88263827 -550.98828714 312.16888127 -548.83222961 304.47215271 C-546.48099463 296.0654086 -544.23952401 287.63005909 -541.99871826 279.19332886 C-540.68909794 274.26364979 -539.37539775 269.33505701 -538.0625 264.40625 C-537.52473621 262.38671965 -536.98697577 260.3671884 -536.44921875 258.34765625 C-530.52549043 236.10552737 -524.58434457 213.86919964 -518.4375 191.6875 C-518.13196198 190.58207352 -518.13196198 190.58207352 -517.82025146 189.45431519 C-510.60111911 163.36296076 -502.86862462 142.63021493 -479.015625 127.640625 C-463.27016227 118.96141871 -444.65035388 115.81910963 -427.33666992 111.56616211 C-421.61743353 110.15417399 -415.95152619 108.64119709 -410.3125 106.9375 C-398.02036566 103.22619253 -385.55723103 100.14375341 -373.11862183 96.96672058 C-370.41214077 96.27490079 -367.7062154 95.58092 -365.00030518 94.88687134 C-363.07554793 94.39433246 -361.14985234 93.90546492 -359.22412109 93.41674805 C-352.59912372 91.71980515 -346.02859811 89.91766416 -339.4765625 87.9609375 C-331.79517982 85.66906404 -324.06686623 83.62908313 -316.29428101 81.67184448 C-304.51357106 78.70209726 -292.76700168 75.6332453 -281.0625 72.375 C-260.28871641 66.5933876 -239.4486608 61.08207264 -218.55886841 55.73736572 C-210.66261805 53.71432417 -202.81565527 51.60504932 -195.01928711 49.22753906 C-188.08763139 47.14149069 -181.0571465 45.46520833 -174.02880859 43.73999023 C-167.33165818 42.08397336 -160.68778642 40.29785257 -154.0625 38.375 C-142.55445423 35.03640446 -130.98215731 31.99750386 -119.37319946 29.03027344 C-115.99841234 28.16752481 -112.6240706 27.30304637 -109.25 26.4375 C-108.57036194 26.26319458 -107.89072388 26.08888916 -107.19049072 25.90930176 C-99.05912632 23.82023043 -90.96566903 21.65544717 -82.9296875 19.22387695 C-74.4446517 16.67306307 -65.85413155 14.51568653 -57.27392578 12.31152344 C-53.49279482 11.3392171 -49.71311499 10.36135138 -45.93359375 9.3828125 C-43.18495559 8.67164384 -40.43624662 7.96074934 -37.6875 7.25 C-36.71100494 6.99746964 -36.71100494 6.99746964 -35.71478271 6.73983765 C-32.59716798 5.93403731 -29.47876943 5.13174445 -26.35839844 4.33666992 C-24.12229188 3.75946355 -21.89059178 3.16474375 -19.66503906 2.5480957 C-13.01705953 0.74924952 -6.88523258 -0.07941158 0 0 Z " fill="none" stroke="#FFAB99" stroke-width="8" transform="translate(2237.875,964.5625)"/>
<path d="M0 0 C4.24032438 2.00719094 5.89996596 3.94879616 7.8671875 8.1640625 C8.62660645 9.77909668 8.62660645 9.77909668 9.40136719 11.42675781 C12.02703789 17.29562103 14.61914424 23.17555787 17.14682007 29.08737183 C18.51590733 32.28919849 19.89298886 35.48756939 21.26951599 38.686203 C22.01074778 40.40870729 22.75159582 42.13137676 23.49208069 43.85420227 C27.59826573 53.40390407 31.74573345 62.9355834 35.89447021 72.46685791 C38.03861701 77.39287955 40.18143954 82.3194771 42.32421875 87.24609375 C42.7335968 88.18727051 43.14297485 89.12844727 43.5647583 90.09814453 C46.88342549 97.72910798 50.1939043 105.36358199 53.5 113 C58.77926827 125.19290042 64.07566308 137.37831027 69.375 149.5625 C77.24415309 167.65521332 85.10256301 185.75256472 92.95443726 203.8527832 C98.56616405 216.78886455 104.18142824 229.72337928 109.81027222 242.65202332 C111.93379431 247.52985015 114.05526947 252.4085388 116.17089844 257.28979492 C116.9667357 259.1255148 117.76263282 260.96120874 118.55859375 262.796875 C118.93960236 263.67563797 119.32061096 264.55440094 119.71316528 265.45979309 C121.77912546 270.21646163 123.86642021 274.96256653 125.98493958 279.69606018 C126.8776268 281.6928617 127.7638462 283.69239267 128.64770508 285.69311523 C129.66926953 288.00070215 130.70301928 290.30295986 131.75268555 292.59790039 C134.28462047 298.358064 136.37365239 303.65881837 135 310 C132.69307957 313.82183362 129.6086496 316.31475814 126.125 319.0625 C121.67520578 322.62826844 117.31523539 326.27266974 113 330 C108.01113861 334.30034727 102.9577672 338.50487134 97.84375 342.65625 C94.52313514 345.39302049 91.25953218 348.1910295 88 351 C83.01059233 355.29972713 77.95778844 359.50485409 72.84375 363.65625 C69.52313514 366.39302049 66.25953218 369.1910295 63 372 C58.87531796 375.55453161 54.72792288 379.06792143 50.5 382.5 C45.09923828 386.88712902 39.825323 391.41223412 34.55078125 395.94921875 C26.37694151 402.97930174 18.14187486 409.92874095 9.7734375 416.7265625 C7.7643012 418.37348831 5.77116193 420.03213601 3.7890625 421.7109375 C3.25095947 422.16525146 2.71285645 422.61956543 2.15844727 423.08764648 C0.64615554 424.36674407 -0.86257572 425.65004778 -2.37109375 426.93359375 C-5.59485667 429.46757679 -7.81272972 430.84513866 -11.875 431.375 C-18.76356848 430.54837178 -23.39020563 424.91749469 -28.30078125 420.41796875 C-30.92961209 418.06305371 -33.62442794 415.83577726 -36.375 413.625 C-40.92860712 409.94363311 -45.23582516 406.07225527 -49.51904297 402.08642578 C-52.75176204 399.09587359 -56.06687666 396.26228315 -59.5 393.5 C-63.47629963 390.30067846 -67.26663848 386.97410864 -71 383.5 C-75.64779332 379.1762097 -80.43436315 375.10013943 -85.41015625 371.15234375 C-88.68077482 368.43422786 -91.62954041 365.4354692 -94.5390625 362.3359375 C-100.3495488 359.18167351 -109.50596183 362.58801806 -115.73828125 363.85546875 C-116.64912476 364.03768478 -117.55996826 364.21990082 -118.49841309 364.40763855 C-121.43726602 364.99691021 -124.37490344 365.59199963 -127.3125 366.1875 C-129.34526714 366.59666145 -131.37806355 367.0056775 -133.41088867 367.41455078 C-144.56052364 369.66317169 -155.69579563 371.96882427 -166.8125 374.375 C-199.71690139 381.48434563 -199.71690139 381.48434563 -205 380 C-210.54852683 375.69841679 -212.09038792 370.2441419 -214.2734375 363.7421875 C-214.6581723 362.63495331 -215.0429071 361.52771912 -215.43930054 360.38693237 C-216.24243427 358.07078114 -217.03923998 355.75242672 -217.82995605 353.43200684 C-218.92915366 350.20780853 -220.04504919 346.99007347 -221.16894531 343.77441406 C-222.96228889 338.63804821 -224.74046353 333.49660988 -226.51272583 328.35293579 C-228.46456636 322.68849074 -230.42205938 317.02599834 -232.37890625 311.36328125 C-232.77176315 310.22604111 -233.16462006 309.08880096 -233.56938171 307.917099 C-236.91468864 298.23688327 -240.28248439 288.5646373 -243.66055298 278.89581299 C-244.55914108 276.32212044 -245.45597823 273.74782423 -246.35229492 271.17333984 C-249.38123041 262.47714398 -252.42579903 253.78690016 -255.50007629 245.10661316 C-257.09722331 240.59159095 -258.68567778 236.07353604 -260.2729187 231.55502319 C-261.04265927 229.37053816 -261.81629487 227.18742128 -262.59402466 225.00576782 C-263.67554392 221.97080702 -264.74345896 218.93136777 -265.80859375 215.890625 C-266.1327829 214.99157944 -266.45697205 214.09253387 -266.79098511 213.16624451 C-268.47406094 208.31374957 -269.59342779 204.20847633 -269 199 C-266.02951511 193.16012564 -259.65179687 189.24547674 -254.4375 185.5625 C-252.73706186 184.33632468 -251.03788902 183.10839316 -249.33984375 181.87890625 C-248.02282471 180.92781982 -248.02282471 180.92781982 -246.67919922 179.95751953 C-242.23247197 176.7085803 -237.86863768 173.35278855 -233.5 170 C-226.11440307 164.34541294 -218.66803256 158.78528138 -211.1640625 153.2890625 C-205.22328567 148.92722968 -199.3524674 144.47945452 -193.5 140 C-186.11358208 134.34646605 -178.66805534 128.78529806 -171.1640625 123.2890625 C-165.22328567 118.92722968 -159.3524674 114.47945452 -153.5 110 C-146.88052718 104.93348268 -140.22490542 99.92573836 -133.5 95 C-125.80551751 89.36280971 -118.20250844 83.61358203 -110.625 77.8203125 C-104.80470092 73.3710172 -98.95928117 68.958072 -93.09033203 64.57324219 C-87.59443813 60.46063099 -82.14061253 56.29409476 -76.6875 52.125 C-69.23827466 46.43297253 -61.73093633 40.83014457 -54.16699219 35.29174805 C-48.20084607 30.91256705 -42.31153088 26.43925934 -36.4375 21.9375 C-29.62629132 16.7220855 -22.76692885 11.58565137 -15.8125 6.5625 C-14.67155884 5.73770142 -14.67155884 5.73770142 -13.50756836 4.89624023 C-6.03040939 -0.47297329 -6.03040939 -0.47297329 0 0 Z " fill="none" stroke="#FFAB99" stroke-width="8" transform="translate(2366,562)"/>
<path d="M0 0 C40.92 0 81.84 0 124 0 C124 4.95 124 9.9 124 15 C122.91203125 15.18175781 121.8240625 15.36351562 120.703125 15.55078125 C103.6681553 17.49891394 103.6681553 17.49891394 89 25 C84.79749828 31.07062519 84.4178492 36.80045723 84.45410156 44.00585938 C84.43859505 45.61695084 84.43859505 45.61695084 84.42277527 47.2605896 C84.39342594 50.7884642 84.3918497 54.31576309 84.390625 57.84375 C84.37563812 60.29855437 84.35890991 62.75334868 84.34051514 65.20812988 C84.29688694 71.65247062 84.27685233 78.09667534 84.26177979 84.5411377 C84.24219258 91.12386096 84.20022427 97.70643768 84.16015625 104.2890625 C84.08490301 117.19265861 84.03382114 130.09623216 84 143 C88.61062796 141.57327779 91.36414565 140.15644488 94.875 136.8125 C95.73867187 136.00425781 96.60234375 135.19601562 97.4921875 134.36328125 C98.31976562 133.58339844 99.14734375 132.80351563 100 132 C101.3267993 130.82590779 102.6596317 129.65857745 104 128.5 C111.70393953 121.77240132 119.23407899 114.87820897 126.6875 107.875 C127.75665649 106.87158569 127.75665649 106.87158569 128.84741211 105.84790039 C135.14926336 99.90912478 141.27499761 93.92053649 146.92578125 87.35546875 C149.01416929 84.98390945 151.15476367 82.67142024 153.31176758 80.36254883 C159.14558618 74.11144319 164.72783506 67.73859492 170 61 C170.48533203 60.38189453 170.97066406 59.76378906 171.47070312 59.12695312 C184.64248662 42.91440094 184.64248662 42.91440094 188 23 C179.97568324 16.93494191 168.65804819 16.57488382 159 16 C159 11.05 159 6.1 159 1 C195.3 1 231.6 1 269 1 C269 5.62 269 10.24 269 15 C267.38544922 15.25523438 267.38544922 15.25523438 265.73828125 15.515625 C243.77961943 19.10509451 226.6905536 25.11715006 212.55859375 42.8984375 C209.660796 46.47977665 206.52593494 49.82928441 203.375 53.1875 C199.39973186 57.42517332 195.46936306 61.67905468 191.671875 66.078125 C189.64241927 68.41105074 187.572353 70.70511245 185.5 73 C182.84886006 75.93678465 180.21709829 78.88602542 177.625 81.875 C172.85409379 87.34462016 167.92566984 92.67021173 163 98 C162.17290527 98.8969458 162.17290527 98.8969458 161.32910156 99.81201172 C140.93755105 121.9038187 140.93755105 121.9038187 131 130 C135.07223551 135.77727721 139.63239145 140.94962786 144.421875 146.140625 C147.68649387 149.76138411 150.73324802 153.53428563 153.79296875 157.328125 C155.91623338 159.8985905 158.11811849 162.35919363 160.375 164.8125 C164.41417575 169.24437339 168.10313508 173.88081821 171.77294922 178.61645508 C174.920159 182.6643502 178.16332198 186.60720897 181.5 190.5 C185.71138583 195.42123698 189.75563962 200.44797675 193.734375 205.55859375 C197.2653641 210.0870374 200.86802614 214.55224867 204.5 219 C208.63451629 224.06536195 212.72280722 229.16138987 216.75 234.3125 C218.08480058 236.01401973 219.42030999 237.71497883 220.75634766 239.41552734 C221.92690939 240.90687906 223.0944168 242.40062668 224.26171875 243.89453125 C239.07687164 262.48661719 255.9491724 277.20652608 280.375 280.3125 C282.56125 280.539375 284.7475 280.76625 287 281 C287 285.95 287 290.9 287 296 C276.22166095 296.37174317 265.44485947 296.65549762 254.66140175 296.82899475 C249.65297769 296.91229971 244.64895574 297.02511066 239.64306641 297.20703125 C234.805631 297.38171691 229.97240786 297.47669784 225.132061 297.51803589 C223.29195151 297.54746185 221.45205765 297.60494235 219.61375809 297.69168091 C205.58503153 298.32690019 205.58503153 298.32690019 201.26016998 294.43390274 C198.14523271 290.58492396 195.95851769 286.36563519 193.90596867 281.87991238 C192.7041531 279.38610875 191.18146681 277.20849088 189.53125 274.9921875 C189.02827393 274.30342529 188.52529785 273.61466309 188.00708008 272.9050293 C187.26107544 271.90016479 187.26107544 271.90016479 186.5 270.875 C185.38891746 269.35836987 184.27824472 267.84143944 183.16796875 266.32421875 C182.63220215 265.59509277 182.09643555 264.8659668 181.54443359 264.11474609 C179.68458125 261.56810667 177.85982283 258.99802367 176.03979492 256.42285156 C167.82966718 244.81402164 159.02545928 233.72557501 150.03125 222.71875 C147.62150201 219.76888609 145.24029419 216.79819922 142.875 213.8125 C139.38115893 209.42864889 135.76928098 205.15247864 132.1340332 200.88598633 C129.2231921 197.46498229 126.37622606 194.00186558 123.5625 190.5 C119.18665755 185.11857796 114.50691185 180.06001431 109.77734375 174.9921875 C107.61922281 172.67759738 105.5082619 170.33104254 103.4375 167.9375 C102.91285156 167.33679687 102.38820313 166.73609375 101.84765625 166.1171875 C100.80265928 164.91974912 99.75943851 163.72073908 98.72216797 162.51660156 C97.28447072 160.85493145 95.83096414 159.20817261 94.375 157.5625 C93.91923584 157.02939209 93.46347168 156.49628418 92.99389648 155.94702148 C90.08959098 152.69700297 88.25204273 151.63278151 84 151 C84.06063179 165.07379846 84.1383948 179.14741377 84.23571491 193.2210083 C84.28040939 199.756213 84.31966784 206.29135549 84.34643555 212.82666016 C84.37247729 219.13561718 84.4128866 225.44433469 84.46318626 231.75314331 C84.47984894 234.15799985 84.49136693 236.56289781 84.49761391 238.96780396 C84.50726115 242.34076952 84.53532938 245.71312313 84.56762695 249.0859375 C84.56619186 250.07640579 84.56475677 251.06687408 84.5632782 252.08735657 C84.66065895 259.29599569 85.59329844 265.07293053 90.3125 270.8125 C95.53098674 275.06010549 101.00328227 276.70275912 107.4375 278.125 C108.16259766 278.29386719 108.88769531 278.46273438 109.63476562 278.63671875 C114.10355312 279.65654986 118.42770575 280.34681511 123 281 C123 285.95 123 290.9 123 296 C82.74 296 42.48 296 1 296 C1 291.05 1 286.1 1 281 C2.79566406 280.75765625 4.59132813 280.5153125 6.44140625 280.265625 C8.81521339 279.92785007 11.18890547 279.58926578 13.5625 279.25 C14.74392578 279.09273437 15.92535156 278.93546875 17.14257812 278.7734375 C27.84527779 277.26364405 27.84527779 277.26364405 35.875 270.5 C37.47462595 266.94527568 38.12436963 263.85805624 38.13142776 259.96939468 C38.13718948 258.77352749 38.13718948 258.77352749 38.1430676 257.55350137 C38.14220112 256.68347348 38.14133463 255.81344559 38.14044189 254.91705322 C38.14341302 253.98823011 38.14638414 253.059407 38.1494453 252.10243773 C38.1581334 248.98267077 38.15964064 245.86294217 38.16113281 242.74316406 C38.1657609 240.50927651 38.17078555 238.27538975 38.17617798 236.04150391 C38.1893048 229.96701748 38.19574749 223.89254211 38.20018864 217.81804371 C38.2031189 214.02352817 38.20722362 210.22901566 38.21169281 206.43450165 C38.22380151 195.92415146 38.23418361 185.41380305 38.2375679 174.9034462 C38.23778747 174.23098381 38.23800703 173.55852143 38.23823325 172.86568139 C38.23845153 172.19162933 38.23866981 171.51757726 38.2388947 170.82309937 C38.23933816 169.45726156 38.23978473 168.09142375 38.24023438 166.72558594 C38.24056652 165.70933642 38.24056652 165.70933642 38.24090537 164.67255661 C38.24485223 153.69802281 38.26230342 142.72355545 38.2855939 131.74904731 C38.30932465 120.47587725 38.32151271 109.20273936 38.32293582 97.9295404 C38.32398423 91.60240456 38.32989987 85.27536245 38.34775543 78.94824982 C38.36422657 72.99585569 38.36639616 67.04362583 38.35761642 61.09121704 C38.35684554 58.9079418 38.36119546 56.72465775 38.37107468 54.54140472 C38.38378285 51.55770137 38.37792324 48.57458081 38.36749268 45.59088135 C38.37554908 44.72977635 38.38360548 43.86867135 38.39190602 42.98147225 C38.34293607 36.97953242 37.6800037 30.73305808 33.2734375 26.23925781 C28.32171581 23.53669778 23.37743614 21.45683126 18 19.75 C17.24460937 19.49476562 16.48921875 19.23953125 15.7109375 18.9765625 C10.79139374 17.37052588 6.13677527 16.57330081 1 16 C0.67 15.67 0.34 15.34 0 15 C0 10.05 0 5.1 0 0 Z " fill="none" stroke="#FFAB99" stroke-width="8" transform="translate(2482,1487)"/>
<path d="M0 0 C12.79406355 10.3651154 18.4699283 23.70089245 21.078125 39.68359375 C21.42457105 44.0478714 21.43173206 48.36837149 21.37109375 52.74414062 C21.36671295 53.96549713 21.36233215 55.18685364 21.3578186 56.44522095 C21.34356812 59.74653189 21.3161545 63.04741617 21.28351212 66.34858513 C21.25324588 69.82368699 21.24297328 73.2988426 21.23120117 76.77404785 C21.19813761 85.57736186 21.13941738 94.38043798 21.078125 103.18359375 C21.01188486 112.71913051 20.95028897 122.25457419 20.91787052 131.79029512 C20.9029771 135.9150934 20.87348771 140.03944474 20.83258057 144.16406345 C20.80489196 147.32872345 20.79663949 150.49344912 20.78515625 153.65820312 C20.76190781 155.36014328 20.76190781 155.36014328 20.7381897 157.09646606 C20.73673534 164.30472466 21.59228368 168.71439439 26.328125 174.37109375 C32.45625788 179.5242964 38.28162887 180.16524594 46.015625 180.37109375 C46.89025391 180.40525391 47.76488281 180.43941406 48.66601562 180.47460938 C50.80295754 180.55635032 52.94051718 180.62166505 55.078125 180.68359375 C55.078125 185.30359375 55.078125 189.92359375 55.078125 194.68359375 C38.12814789 201.00257701 19.81059055 207.1765604 2.078125 199.68359375 C-8.05978745 194.25414572 -13.55777805 186.5234617 -16.921875 175.68359375 C-16.921875 174.69359375 -16.921875 173.70359375 -16.921875 172.68359375 C-18.06815835 173.68307787 -19.21386353 174.68322506 -20.359375 175.68359375 C-21.09671875 176.32425781 -21.8340625 176.96492188 -22.59375 177.625 C-24.08374858 178.94249874 -25.55476507 180.28198417 -27 181.6484375 C-43.88462218 197.43868602 -65.0788145 204.30672265 -87.88867188 204.03271484 C-102.94748298 203.51791363 -116.3330759 197.60370712 -126.6953125 186.56640625 C-134.49986576 176.4615636 -138.31406174 165.14590589 -138.234375 152.43359375 C-138.22873535 151.49845947 -138.2230957 150.5633252 -138.21728516 149.59985352 C-138.09925103 142.89119123 -137.53061223 136.92875257 -134.921875 130.68359375 C-134.5196875 129.70390625 -134.1175 128.72421875 -133.703125 127.71484375 C-125.64806905 109.99372067 -109.89549535 100.49209987 -92.28884888 93.66220093 C-85.08636506 91.01951502 -77.81577846 88.57361438 -70.546875 86.12109375 C-66.26694564 84.66521087 -61.98869803 83.20442956 -57.7109375 81.7421875 C-56.6826886 81.39094818 -55.6544397 81.03970886 -54.59503174 80.67782593 C-42.47586113 76.52413015 -30.49201558 72.22353395 -18.921875 66.68359375 C-17.62768262 38.19603335 -17.62768262 38.19603335 -29.9609375 13.3671875 C-38.96387332 4.73009536 -47.47417243 3.13103611 -59.58813477 3.27856445 C-65.74110796 3.4790981 -71.29116038 4.02880815 -76.921875 6.68359375 C-77.70304687 7.02390625 -78.48421875 7.36421875 -79.2890625 7.71484375 C-81.5199512 8.85730578 -83.18586062 9.87681791 -84.921875 11.68359375 C-85.73701633 16.41141344 -84.83158165 20.20714993 -83.921875 24.87109375 C-82.32298947 33.2131052 -81.0606447 42.42881303 -85.5859375 50.03515625 C-89.08336999 54.3507016 -93.68721167 56.98102137 -98.921875 58.68359375 C-112.46447277 59.97479487 -112.46447277 59.97479487 -118.046875 57.18359375 C-123.30782256 52.60885674 -127.401646 46.14269945 -128.22265625 39.10546875 C-128.27866996 26.33434282 -123.8107032 18.75980412 -115.234375 9.62109375 C-106.36037432 1.06461851 -95.31526074 -3.99763376 -83.921875 -8.31640625 C-82.76945312 -8.7546875 -81.61703125 -9.19296875 -80.4296875 -9.64453125 C-56.41240703 -17.10723109 -20.29832409 -15.22374307 0 0 Z " fill="none" stroke="#FFAB99" stroke-width="8" transform="translate(2911.921875,1584.31640625)"/>
<path d="M0 0 C3.23219504 2.73674535 5.42022107 5.83125759 7.63671875 9.4140625 C8.02351807 10.02910645 8.41031738 10.64415039 8.80883789 11.27783203 C17.48395703 25.39259463 19.1540938 39.64705845 19.16943359 55.91235352 C19.17451431 57.10050659 19.17959503 58.28865967 19.18482971 59.51281738 C19.19825507 62.74618875 19.20768258 65.97954699 19.21624708 69.21293378 C19.22704226 72.61113447 19.24560347 76.00928915 19.2640686 79.40745544 C19.32571112 90.96032026 19.38001964 102.51317732 19.41308594 114.06616211 C19.43146643 120.46046615 19.46043562 126.85463183 19.50109065 133.24883407 C19.52208455 136.62482799 19.53760723 140.00064828 19.53989792 143.37671089 C19.54480946 147.14140225 19.56797251 150.90557929 19.59521484 154.67016602 C19.59220871 155.77740524 19.58920258 156.88464447 19.58610535 158.0254364 C19.66300516 165.18602001 20.02953749 171.69357747 25.3046875 177.05859375 C32.49762261 181.49060427 40.5828901 184.23074905 49.01171875 184.7265625 C49.01171875 189.3465625 49.01171875 193.9665625 49.01171875 198.7265625 C15.68171875 198.7265625 -17.64828125 198.7265625 -51.98828125 198.7265625 C-51.98828125 194.1065625 -51.98828125 189.4865625 -51.98828125 184.7265625 C-49.30571778 183.38528077 -47.04795928 183.53879642 -44.05078125 183.4140625 C-37.33160822 182.92241569 -29.52358635 182.16291504 -24.453125 177.234375 C-21.68985823 173.25289384 -20.86393566 169.52345299 -20.84111023 164.78372192 C-20.83395493 163.76344406 -20.82679962 162.7431662 -20.81942749 161.69197083 C-20.81673859 160.5730394 -20.81404968 159.45410797 -20.8112793 158.30126953 C-20.8014225 156.53240135 -20.8014225 156.53240135 -20.79136658 154.72779846 C-20.77160993 150.81333057 -20.75995788 146.89887612 -20.75 142.984375 C-20.74595052 141.63283137 -20.74183354 140.28128794 -20.73764992 138.92974472 C-20.71859223 132.57215633 -20.70436847 126.21457951 -20.69603795 119.85696805 C-20.68629538 112.54388521 -20.66005705 105.23110746 -20.61953706 97.91813195 C-20.58923071 92.25167068 -20.574555 86.58529606 -20.57125694 80.91875541 C-20.5689208 77.54185114 -20.56015208 74.16527248 -20.53479576 70.78845596 C-20.51029761 67.00732869 -20.51138999 63.22698408 -20.51831055 59.44580078 C-20.50550049 58.34711166 -20.49269043 57.24842255 -20.47949219 56.11643982 C-20.55636032 44.50979799 -23.68643236 32.93887297 -30.98828125 23.7265625 C-37.99918423 16.84573193 -45.37471132 13.39606214 -55.19360352 13.25830078 C-56.03334717 13.26845215 -56.87309082 13.27860352 -57.73828125 13.2890625 C-58.61863037 13.29663574 -59.49897949 13.30420898 -60.40600586 13.31201172 C-67.51251527 13.49096435 -73.51974658 14.67751753 -79.98828125 17.7265625 C-80.91769531 18.15066406 -81.84710937 18.57476563 -82.8046875 19.01171875 C-93.09861075 24.15152187 -102.76487996 32.27975993 -107.98828125 42.7265625 C-108.09165042 44.36816453 -108.13210459 46.01389948 -108.1421814 47.65872192 C-108.15078186 48.70167923 -108.15938232 49.74463654 -108.16824341 50.81919861 C-108.17250336 51.96828201 -108.17676331 53.11736542 -108.18115234 54.30126953 C-108.18932983 55.50790756 -108.19750732 56.71454559 -108.20593262 57.95774841 C-108.23082405 61.96662055 -108.24746552 65.97545486 -108.26171875 69.984375 C-108.26707903 71.36543662 -108.27245654 72.74649817 -108.2778511 74.12755966 C-108.29948499 79.87511604 -108.31821911 85.62266962 -108.3294735 91.37025642 C-108.34569409 99.59957851 -108.37881922 107.82842701 -108.43587434 116.05757058 C-108.47464066 121.8470723 -108.49411432 127.63644775 -108.49939406 133.42607582 C-108.5030398 136.88171993 -108.5149757 140.33685903 -108.5474968 143.79236221 C-108.58331313 147.65354354 -108.57918953 151.51413657 -108.57177734 155.37548828 C-108.58818268 156.5124263 -108.60458801 157.64936432 -108.62149048 158.820755 C-108.56741038 165.71122146 -107.58509695 170.44518238 -102.98828125 175.7265625 C-96.63132446 181.07218526 -88.96352974 182.91358113 -80.8359375 183.515625 C-78.98828125 183.7265625 -78.98828125 183.7265625 -76.98828125 184.7265625 C-76.98828125 189.3465625 -76.98828125 193.9665625 -76.98828125 198.7265625 C-110.31828125 198.7265625 -143.64828125 198.7265625 -177.98828125 198.7265625 C-177.98828125 194.1065625 -177.98828125 189.4865625 -177.98828125 184.7265625 C-174.55452826 183.58197817 -171.40306255 183.33787457 -167.80078125 182.9765625 C-161.86244073 182.25596608 -156.13123319 181.39272229 -151.98828125 176.7265625 C-148.23475673 170.11272464 -148.55110715 163.7049583 -148.56835938 156.23901367 C-148.56101097 154.8749065 -148.5524225 153.51080553 -148.54269409 152.14671326 C-148.52054787 148.45643591 -148.517544 144.76638233 -148.5194416 141.07604766 C-148.51956165 137.98735603 -148.51098346 134.89871121 -148.50266409 131.81003267 C-148.483454 124.51777295 -148.48053709 117.22562769 -148.48730469 109.93334961 C-148.49394055 102.4300014 -148.47109432 94.92714539 -148.43399096 87.42389697 C-148.40322008 80.9650256 -148.39194199 74.50631195 -148.39582777 68.04736882 C-148.39788805 64.19720673 -148.39252902 60.34742761 -148.36793518 56.49733543 C-148.34554822 52.8732226 -148.3476433 49.24990535 -148.3678627 45.62578773 C-148.37285712 43.67635926 -148.35333959 41.72691514 -148.33285522 39.77758789 C-148.41376593 31.24812423 -149.86603009 24.31732928 -155.69779205 17.82275677 C-162.49574972 11.31866508 -171.01527077 10.1846767 -179.98828125 8.7265625 C-179.98828125 4.1065625 -179.98828125 -0.5134375 -179.98828125 -5.2734375 C-119.87675524 -10.23435361 -119.87675524 -10.23435361 -110.98828125 -9.2734375 C-108.19650556 -6.48166181 -108.67614641 -4.64160178 -108.57421875 -0.734375 C-108.53554687 0.56757812 -108.496875 1.86953125 -108.45703125 3.2109375 C-108.42557362 4.59114112 -108.39432634 5.97134954 -108.36328125 7.3515625 C-108.32510191 8.73960791 -108.2860502 10.12762961 -108.24609375 11.515625 C-108.15155182 14.91913435 -108.06600228 18.32263415 -107.98828125 21.7265625 C-107.40167725 21.13053223 -106.81507324 20.53450195 -106.21069336 19.92041016 C-78.31875122 -8.23161669 -35.63319415 -27.10917516 0 0 Z " fill="none" stroke="#FFAB99" stroke-width="8" transform="translate(3339.98828125,1584.2734375)"/>
<path d="M0 0 C6.8535212 7.23427238 10.14894879 15.5065605 10.5 25.375 C10.20405203 34.16639572 7.81038927 42.53240842 1.671875 49.05078125 C-4.5536944 53.85529676 -12.27946443 53.24955942 -19.75 52.375 C-26.52377784 50.53228536 -30.03351414 46.38820559 -33.87109375 40.71875 C-35.20422396 37.16373611 -34.99785375 33.61693231 -34.9375 29.875 C-34.9365332 28.73611328 -34.9365332 28.73611328 -34.93554688 27.57421875 C-34.90747799 24.01258859 -34.70717839 20.80079159 -33.75 17.375 C-51.58124626 20.74847902 -64.58699939 30.3578231 -75.75 44.375 C-77.94428285 47.66642428 -78.00344266 48.64387887 -78.01742554 52.46537781 C-78.02595551 53.51812393 -78.03448547 54.57087006 -78.04327393 55.65551758 C-78.04236755 56.81035645 -78.04146118 57.96519531 -78.04052734 59.1550293 C-78.04724457 60.37156693 -78.05396179 61.58810455 -78.06088257 62.84150696 C-78.0766454 66.18067915 -78.08323892 69.51960261 -78.08451414 72.85879493 C-78.08593592 74.94689292 -78.09020614 77.03496488 -78.09550858 79.12305641 C-78.11401976 86.41367877 -78.12217838 93.70422797 -78.12060547 100.99487305 C-78.11940579 107.78011441 -78.14047085 114.56503679 -78.1720928 121.35019749 C-78.19829929 127.18219704 -78.20897085 133.01409276 -78.20769465 138.8461507 C-78.20718602 142.32627079 -78.21281285 145.80610783 -78.23405075 149.28616905 C-78.25712534 153.17357027 -78.24788546 157.06053962 -78.23583984 160.94799805 C-78.24707886 162.09271576 -78.25831787 163.23743347 -78.26989746 164.4168396 C-78.21986302 170.77983309 -77.75187566 176.19485791 -73.75 181.375 C-68.79025404 185.31415828 -62.66280259 187.42715405 -56.44921875 188.2265625 C-55.47275391 188.35546875 -54.49628906 188.484375 -53.49023438 188.6171875 C-52.48283203 188.74351562 -51.47542969 188.86984375 -50.4375 189 C-49.41076172 189.1340625 -48.38402344 189.268125 -47.32617188 189.40625 C-44.80153912 189.73503938 -42.27586423 190.05580907 -39.75 190.375 C-39.75 194.995 -39.75 199.615 -39.75 204.375 C-75.39 204.375 -111.03 204.375 -147.75 204.375 C-147.75 199.755 -147.75 195.135 -147.75 190.375 C-146.615625 190.27703125 -145.48125 190.1790625 -144.3125 190.078125 C-131.43677227 189.13941135 -131.43677227 189.13941135 -120.8125 182.375 C-118.75885724 178.50931951 -118.62090712 174.93518996 -118.60282898 170.60163879 C-118.59567368 169.42275085 -118.58851837 168.24386292 -118.58114624 167.0292511 C-118.57845734 165.73931747 -118.57576843 164.44938385 -118.57299805 163.12036133 C-118.56673 161.74522735 -118.56008289 160.37009506 -118.55308533 158.9949646 C-118.53208102 154.48233206 -118.52168552 149.96969933 -118.51171875 145.45703125 C-118.50766967 143.90077891 -118.5035527 142.34452675 -118.49936867 140.78827477 C-118.48032402 133.47495215 -118.46609214 126.16163958 -118.4577567 118.84829694 C-118.44799027 110.41964292 -118.4216834 101.99125193 -118.38125581 93.56269056 C-118.3510457 87.03937876 -118.33628315 80.51614216 -118.33297569 73.99276179 C-118.33063055 70.10070053 -118.32174069 66.2089205 -118.29651451 62.31693459 C-118.27314301 58.65195303 -118.26903654 54.98743606 -118.27927589 51.32239914 C-118.28000312 49.34768937 -118.26097546 47.37300271 -118.24121094 45.39839172 C-118.28949251 37.10334429 -119.41755485 30.75393683 -124.50390625 24.0703125 C-131.86736712 17.67698363 -140.26653721 16.2696663 -149.75 15.375 C-149.75 10.755 -149.75 6.135 -149.75 1.375 C-139.79377934 -0.16462175 -130.03109946 -0.95309982 -119.96069336 -1.28295898 C-115.71242631 -1.42709858 -111.52343647 -1.61125709 -107.3046875 -2.14453125 C-101.79208237 -2.81069409 -96.29587455 -2.77108698 -90.75 -2.75 C-89.70199219 -2.75386719 -88.65398438 -2.75773437 -87.57421875 -2.76171875 C-86.08341797 -2.75978516 -86.08341797 -2.75978516 -84.5625 -2.7578125 C-83.66144531 -2.75668457 -82.76039063 -2.75555664 -81.83203125 -2.75439453 C-79.75 -2.625 -79.75 -2.625 -78.75 -1.625 C-78.66216458 0.59355264 -78.64305391 2.81488496 -78.65234375 5.03515625 C-78.6537587 5.69962265 -78.65517365 6.36408905 -78.65663147 7.0486908 C-78.66224482 9.17833899 -78.67479946 11.30788339 -78.6875 13.4375 C-78.69251329 14.87825369 -78.69707649 16.31900903 -78.70117188 17.75976562 C-78.71221855 21.29821102 -78.72949208 24.83659539 -78.75 28.375 C-78.09 28.375 -77.43 28.375 -76.75 28.375 C-76.48372803 27.78565674 -76.21745605 27.19631348 -75.94311523 26.58911133 C-70.52897289 16.54187234 -58.59070301 7.59721356 -48.75 2.375 C-47.90953125 1.90835937 -47.0690625 1.44171875 -46.203125 0.9609375 C-31.03080931 -7.09641027 -15.16018724 -8.95829246 0 0 Z " fill="none" stroke="#FFAB99" stroke-width="8" transform="translate(3134.75,1578.625)"/>
<path d="M0 0 C2.8499097 2.8499097 2.25049476 4.75339557 2.2515564 8.74769592 C2.25452654 9.44950924 2.25749667 10.15132255 2.26055682 10.87440294 C2.26822618 13.23804639 2.26169077 15.60144348 2.25537109 17.96508789 C2.25811974 19.65519378 2.26179886 21.34529837 2.26634216 23.03540039 C2.27446936 26.68204046 2.27661875 30.32861916 2.27439499 33.97526741 C2.27156662 39.74539846 2.2858977 45.51540657 2.30337524 51.2855072 C2.35044262 67.69609717 2.3743323 84.10667956 2.38085938 100.51733398 C2.38461429 109.57556953 2.40268234 118.63366672 2.43595374 127.69184297 C2.45614328 133.42305051 2.45854932 139.15390057 2.44767356 144.88512909 C2.4450592 148.46056201 2.45910666 152.03578863 2.47775459 155.61116791 C2.48306017 157.26347793 2.48160785 158.91582633 2.47271919 160.56812096 C2.33915061 174.6423542 2.33915061 174.6423542 9.3515625 186.42578125 C16.13235487 190.45625223 24.2234469 192.11630078 32 193 C35.54338194 196.54338194 33 202.98890121 33 208 C0 208 -33 208 -67 208 C-67 203.38 -67 198.76 -67 194 C-63.2422225 192.12111125 -58.55277114 192.28637206 -54.38476562 191.92578125 C-49.82195974 191.45800445 -46.86218883 190.65208464 -43 188 C-42.34 188 -41.68 188 -41 188 C-38.21439197 182.82672795 -36.75245234 178.02755999 -36.73257446 172.13798523 C-36.72404449 170.99000458 -36.71551453 169.84202393 -36.70672607 168.65925598 C-36.70808563 166.7912458 -36.70808563 166.7912458 -36.70947266 164.88549805 C-36.70348267 163.54947537 -36.69667604 162.21345613 -36.68911743 160.87744141 C-36.67149726 157.25952056 -36.66676372 153.64169442 -36.66548586 150.02373481 C-36.66406135 147.75989604 -36.65978608 145.49608113 -36.65449142 143.23224831 C-36.63600378 135.32449447 -36.62781916 127.41680793 -36.62939453 119.5090332 C-36.63059535 112.15401834 -36.60950174 104.79929719 -36.5779072 97.44435662 C-36.55169891 91.11632023 -36.54102915 84.7883795 -36.54230535 78.4602893 C-36.54281368 74.68676115 -36.53720242 70.91349415 -36.51594925 67.14002037 C-36.49648985 63.58825259 -36.49649418 60.03699301 -36.51098251 56.4852066 C-36.51404817 54.57255573 -36.49744783 52.65990439 -36.48010254 50.74732971 C-36.54205175 42.20748582 -38.32832334 36.52129897 -42.625 29.25 C-50.83534879 21.47177483 -62.31019173 20.08439617 -73 18 C-73 13.38 -73 8.76 -73 4 C-65.54950118 3.47327488 -58.09872657 2.95079399 -50.64743614 2.43539429 C-47.18599658 2.19580707 -43.72469652 1.95449833 -40.26367188 1.70898438 C-36.26729217 1.42557534 -32.27039495 1.15014213 -28.2734375 0.875 C-26.44599503 0.74375732 -26.44599503 0.74375732 -24.58163452 0.60986328 C-7.05986929 -0.57911738 -7.05986929 -0.57911738 0 0 Z " fill="none" stroke="#FFAB99" stroke-width="8" transform="translate(3481,1575)"/>
<path d="M0 0 C2.31 0 4.62 0 7 0 C7.13923386 0.56137665 7.27846771 1.1227533 7.42192078 1.70114136 C8.8957131 7.64119011 10.37305491 13.58034857 11.85229492 19.51904297 C12.40102372 21.72390296 12.94890157 23.92897493 13.49584961 26.13427734 C16.27676357 37.34459777 19.09859997 48.52929472 22.24633789 59.64266968 C24.67270257 68.27398742 26.68390722 77.00544239 28.70581055 85.73876953 C29.20780085 87.90028072 29.71851586 90.05958035 30.23046875 92.21875 C30.52332764 93.47623047 30.81618652 94.73371094 31.11791992 96.02929688 C31.76897412 99.08669601 31.76897412 99.08669601 34 101 C34.23501724 100.17632935 34.47003448 99.35265869 34.71217346 98.50402832 C36.96086763 90.62345087 39.21024862 82.74306982 41.46034336 74.86289215 C42.61625619 70.81462187 43.77193131 66.7662841 44.92700195 62.71777344 C49.78751249 45.6823563 54.6580531 28.65068912 59.64038086 11.65039062 C60.7770649 7.7715932 61.89515833 3.88798256 63 0 C65.31 0 67.62 0 70 0 C71.08797745 3.51941441 72.16945271 7.04079793 73.25 10.5625 C73.70052734 12.01946289 73.70052734 12.01946289 74.16015625 13.50585938 C75.80982157 18.89359612 77.36299339 24.29290237 78.796875 29.7421875 C81.6933123 40.73024802 84.86693883 51.64007376 88 62.5625 C88.9287269 65.80553879 89.85708303 69.04868356 90.78540039 72.2918396 C91.38030269 74.36886572 91.97582902 76.44571322 92.57202148 78.52236938 C93.82333616 82.88152999 95.0714105 87.24128318 96.29296875 91.60888672 C96.57297729 92.60576759 96.57297729 92.60576759 96.85864258 93.62278748 C97.33275719 95.31414651 97.8032738 97.00651304 98.2734375 98.69897461 C98.7865947 100.94038795 98.7865947 100.94038795 100 102 C100.18490494 101.24563156 100.36980988 100.49126312 100.56031799 99.71403503 C102.33701004 92.46694712 104.11547251 85.22029673 105.89573765 77.97408581 C106.81006934 74.25223481 107.72380629 70.5302403 108.63598633 66.80786133 C112.30186047 51.8503228 115.98758314 36.89912557 119.83984375 21.98828125 C120.11599014 20.91619919 120.39213654 19.84411713 120.676651 18.73954773 C122.31343948 12.44828032 124.08258302 6.21154655 126 0 C127.98 0 129.96 0 132 0 C131.36268625 6.47777108 129.94252994 12.52345632 128.234375 18.796875 C127.95909973 19.82572815 127.68382446 20.8545813 127.40020752 21.91461182 C126.52179025 25.19443708 125.63627277 28.47228963 124.75 31.75 C123.59650248 36.03580102 122.44609759 40.32242588 121.296875 44.609375 C121.01553711 45.6567836 120.73419922 46.7041922 120.44433594 47.78334045 C118.43050148 55.30910167 116.50099032 62.85276305 114.6539917 70.42120361 C113.4048095 75.51203093 112.00879301 80.5426443 110.5 85.5625 C110.28532578 86.2767363 110.07065155 86.9909726 109.84947205 87.72685242 C109.65809158 88.36355362 109.46671112 89.00025482 109.26953125 89.65625 C106.97704572 97.38057772 105.01231574 105.19906535 103 113 C100.69 113 98.38 113 96 113 C92.72688619 103.85941489 90.03952125 94.63581737 87.5625 85.25 C85.5445448 77.60410119 83.45529152 70.01742559 81 62.5 C77.83089902 52.77950494 75.23036291 42.92000135 72.61328125 33.0390625 C71.04979824 27.142341 69.37720822 21.28614799 67.62890625 15.44140625 C67 13 67 13 67 10 C66.34 10 65.68 10 65 10 C64.8860791 10.96953613 64.7721582 11.93907227 64.65478516 12.93798828 C64.01216708 17.41109763 62.79101718 21.66159341 61.5234375 25.9921875 C61.27745819 26.84684097 61.03147888 27.70149445 60.77804565 28.58204651 C59.98122778 31.34759565 59.1781143 34.11127351 58.375 36.875 C57.54598064 39.74656672 56.71856436 42.61859223 55.89123535 45.49064636 C55.34546803 47.3848546 54.79916564 49.27890876 54.25231934 51.17280579 C52.21002693 58.24985742 50.21571079 65.33877061 48.25 72.4375 C45.7872045 81.29432455 43.2292384 90.12123702 40.625 98.9375 C40.27856445 100.11304443 39.93212891 101.28858887 39.57519531 102.49975586 C39.25389648 103.58135986 38.93259766 104.66296387 38.6015625 105.77734375 C38.31619629 106.73890381 38.03083008 107.70046387 37.73681641 108.69116211 C37 111 37 111 36 113 C33.69 113 31.38 113 29 113 C28.66790527 111.66376587 28.66790527 111.66376587 28.32910156 110.30053711 C27.48765875 106.91747293 26.64506716 103.5346988 25.80175781 100.15209961 C25.44063768 98.70266565 25.07994376 97.25312542 24.71972656 95.8034668 C21.52630753 82.95396927 18.2081564 70.14681572 14.56518555 57.41601562 C11.3974451 46.32750098 8.47661089 35.18848197 5.6875 24 C5.5167395 23.31600128 5.345979 22.63200256 5.17004395 21.92727661 C3.35367228 14.63797121 1.5862232 7.3433277 0 0 Z " fill="none" stroke="#FFAB99" stroke-width="8" transform="translate(2728,1877)"/>
<path d="M0 0 C-0.94746094 0.76570312 -0.94746094 0.76570312 -1.9140625 1.546875 C-7.34245089 5.9584183 -12.7016979 10.4336523 -18 15 C-22.98938681 19.29975287 -28.0422118 23.50485428 -33.15625 27.65625 C-36.47686486 30.39302049 -39.74046782 33.1910295 -43 36 C-47.98940767 40.29972713 -53.04221156 44.50485409 -58.15625 48.65625 C-61.47687107 51.39302561 -64.74029022 54.19122776 -68 57 C-85.42590822 72 -85.42590822 72 -87 72 C-87.07351941 59.47004606 -86.84813698 46.96225351 -86.5 34.4375 C-86.45161558 32.63607327 -86.40343748 30.83464098 -86.35546875 29.03320312 C-86.23934619 24.68873468 -86.12047168 20.34434992 -86 16 C-80.41581394 13.91169657 -74.72225813 12.8843753 -68.8828125 11.79296875 C-67.79402802 11.58569656 -66.70524353 11.37842438 -65.58346558 11.16487122 C-62.09803559 10.50185497 -58.6116084 9.84428871 -55.125 9.1875 C-50.58541147 8.32957662 -46.04645534 7.46837999 -41.5078125 6.60546875 C-39.83202118 6.28870682 -39.83202118 6.28870682 -38.12237549 5.96554565 C-32.4312242 4.88133328 -26.75595357 3.74834386 -21.09277344 2.52587891 C-19.99254852 2.28919998 -18.89232361 2.05252106 -17.75875854 1.80867004 C-15.67245699 1.35587399 -13.58780342 0.8953944 -11.50515747 0.42607117 C-10.11017532 0.12295769 -10.11017532 0.12295769 -8.68701172 -0.1862793 C-7.87513397 -0.36797165 -7.06325623 -0.549664 -6.22677612 -0.73686218 C-3.86014678 -1.01652644 -2.25254221 -0.72688048 0 0 Z " fill="#374F42" transform="translate(2452,887)"/>
<path d="M0 0 C7.38106593 5.02466929 11.19627901 10.58883704 14 19 C14.88986833 27.36818483 13.15427916 35.32374915 8.3125 42.25 C2.75571868 49.04467815 -3.29995589 53.08407637 -12.0859375 54.28515625 C-18.63128699 54.73299595 -23.63301995 52.66092017 -29 49 C-35.15152944 43.5998024 -39.39200905 37.04569808 -40.37890625 28.85546875 C-40.73742639 18.92099133 -38.29916852 11.80368291 -31.5703125 4.5 C-22.52626329 -4.13909178 -11.08691152 -5.12362681 0 0 Z " fill="none" stroke="#FFAB99" stroke-width="8" transform="translate(3474,1470)"/>
<path d="M0 0 C52.23076923 0 52.23076923 0 61.75 8.4375 C62.4925 9.283125 63.235 10.12875 64 11 C64.70125 11.7425 65.4025 12.485 66.125 13.25 C70.88323699 20.22874758 71.85572419 27.70064758 71 36 C69.56425388 43.52375487 66.94822467 51.02892792 60.6640625 55.7578125 C56.22702194 58.51597285 51.96621278 60.38404743 47 62 C47.28148392 62.55043976 47.56296783 63.10087952 47.85298157 63.66799927 C50.78959862 69.41066278 53.72583974 75.1535184 56.66186523 80.89648438 C57.75682136 83.038135 58.85187249 85.17973706 59.94702148 87.32128906 C61.52352635 90.4041683 63.09968656 93.48722354 64.67578125 96.5703125 C65.16339432 97.52366486 65.65100739 98.47701721 66.15339661 99.45925903 C68.45542664 103.96318156 70.74848464 108.47059722 73 113 C70.36 113 67.72 113 65 113 C64.29037109 111.57204102 64.29037109 111.57204102 63.56640625 110.11523438 C58.46282046 99.86557649 53.25502614 89.67269816 48 79.5 C47.21735629 77.98312019 46.43480385 76.46619328 45.65234375 74.94921875 C43.7694393 71.29885219 41.8846908 67.64944674 40 64 C28.78 63.67 17.56 63.34 6 63 C6 79.5 6 96 6 113 C4.02 113 2.04 113 0 113 C0 75.71 0 38.42 0 0 Z M6 5 C6 22.49 6 39.98 6 58 C11.713125 58.0825 17.42625 58.165 23.3125 58.25 C25.98146362 58.30462402 25.98146362 58.30462402 28.7043457 58.36035156 C39.79348607 58.49281205 50.07660664 57.73247478 58.56640625 49.7109375 C63.74097411 43.53529521 65.38181878 36.54991889 65.27734375 28.65625 C64.52329511 21.43437571 60.50220398 14.67626608 55 10 C47.65233577 5.65999725 40.40715333 4.84102861 31.9765625 4.90234375 C31.31422607 4.90335083 30.65188965 4.90435791 29.96948242 4.90539551 C27.52130372 4.91058411 25.07314992 4.92454501 22.625 4.9375 C17.13875 4.958125 11.6525 4.97875 6 5 Z " fill="none" stroke="#FFAB99" stroke-width="8" transform="translate(3306,1877)"/>
<path d="M0 0 C21.12 0 42.24 0 64 0 C64 1.98 64 3.96 64 6 C44.86 6 25.72 6 6 6 C6 21.18 6 36.36 6 52 C24.48 52 42.96 52 62 52 C62 53.98 62 55.96 62 58 C43.52 58 25.04 58 6 58 C6 74.17 6 90.34 6 107 C25.14 107 44.28 107 64 107 C64 108.98 64 110.96 64 113 C42.88 113 21.76 113 0 113 C0 75.71 0 38.42 0 0 Z " fill="#F29D9E" transform="translate(3176,1877)"/>
<path d="M0 0 C21.12 0 42.24 0 64 0 C64 1.98 64 3.96 64 6 C44.86 6 25.72 6 6 6 C6 21.18 6 36.36 6 52 C24.15 52 42.3 52 61 52 C61 53.98 61 55.96 61 58 C42.85 58 24.7 58 6 58 C6 74.17 6 90.34 6 107 C25.14 107 44.28 107 64 107 C64 108.98 64 110.96 64 113 C42.88 113 21.76 113 0 113 C0 75.71 0 38.42 0 0 Z " fill="none" stroke="#FFAB99" stroke-width="8" transform="translate(2921,1877)"/>
<path d="M0 0 C21.12 0 42.24 0 64 0 C64 1.98 64 3.96 64 6 C44.86 6 25.72 6 6 6 C6 21.18 6 36.36 6 52 C24.15 52 42.3 52 61 52 C61 53.98 61 55.96 61 58 C42.85 58 24.7 58 6 58 C6 74.17 6 90.34 6 107 C25.14 107 44.28 107 64 107 C64 108.98 64 110.96 64 113 C42.88 113 21.76 113 0 113 C0 75.71 0 38.42 0 0 Z " fill="none" stroke="#FFAB99" stroke-width="8" transform="translate(2611,1877)"/>
<path d="M0 0 C0.18768062 17.35003107 -0.39261151 34.66358184 -1 52 C-5.44849305 48.73319159 -9.76570844 45.45080353 -13.8125 41.6875 C-17.2271892 38.56430866 -20.70317642 35.58335264 -24.3125 32.6875 C-29.20410582 28.73391518 -33.82942901 24.55429651 -38.40942383 20.2487793 C-41.83978268 17.0305518 -45.36083292 13.98096197 -49 11 C-48.67 10.34 -48.34 9.68 -48 9 C-46.19155884 8.41781616 -46.19155884 8.41781616 -43.80322266 7.94677734 C-42.91204742 7.76674164 -42.02087219 7.58670593 -41.10269165 7.4012146 C-39.64807022 7.12140244 -39.64807022 7.12140244 -38.1640625 6.8359375 C-37.17377045 6.63900299 -36.18347839 6.44206848 -35.16317749 6.23916626 C-33.06400813 5.82337358 -30.96401135 5.4117403 -28.86328125 5.00390625 C-25.64401219 4.37869236 -22.4273493 3.74129626 -19.2109375 3.1015625 C-17.17462065 2.69980307 -15.13816659 2.29873832 -13.1015625 1.8984375 C-11.65301376 1.61255264 -11.65301376 1.61255264 -10.17520142 1.32089233 C-8.82898209 1.06029526 -8.82898209 1.06029526 -7.45556641 0.79443359 C-6.66582428 0.64058197 -5.87608215 0.48673035 -5.06240845 0.32821655 C-3 0 -3 0 0 0 Z " fill="#364E42" transform="translate(2345,907)"/>
<path d="M0 0 C3.1484375 -0.51171875 3.1484375 -0.51171875 7 0 C9.44944009 2.36693769 10.96602314 5.23400754 12.625 8.1875 C13.66524855 9.93496491 14.7056175 11.68235816 15.74609375 13.4296875 C16.27831543 14.34459961 16.81053711 15.25951172 17.35888672 16.20214844 C20.05063707 20.79117834 22.875503 25.29655002 25.6875 29.8125 C26.76969672 31.56369984 27.85173145 33.31499979 28.93359375 35.06640625 C34.79280478 45.57233738 34.79280478 45.57233738 42 55 C42.63276855 53.96782349 42.63276855 53.96782349 43.27832031 52.91479492 C59.18391541 26.98297893 59.18391541 26.98297893 66.11108398 16.18310547 C68.69773605 12.13790267 71.05787178 8.05546177 73.3125 3.8125 C74.62109375 1.55859375 74.62109375 1.55859375 76 0 C79.875 -0.625 79.875 -0.625 83 0 C81.30220508 5.01348852 78.47027296 9.20602408 75.625 13.625 C74.53501005 15.33324005 73.4451705 17.04157609 72.35546875 18.75 C71.51894775 20.05710937 71.51894775 20.05710937 70.66552734 21.390625 C69.07666003 23.87989704 67.49858571 26.37555453 65.92578125 28.875 C65.4241748 29.67212402 64.92256836 30.46924805 64.40576172 31.29052734 C63.47865281 32.76459043 62.55185343 34.23884829 61.62548828 35.71337891 C60.95815674 36.77177979 60.95815674 36.77177979 60.27734375 37.8515625 C59.56324341 39.02875854 59.56324341 39.02875854 58.8347168 40.22973633 C57.37804095 42.42919086 55.89285762 44.37384235 54.22192383 46.40112305 C44.12708142 59.26797289 44.50937898 71.72256553 44.8125 87.5625 C44.81947346 90.03840241 44.82146304 92.51432409 44.81835938 94.99023438 C44.82151527 100.99492186 44.8859312 106.99644754 45 113 C43.02 113 41.04 113 39 113 C39.02450981 112.11155144 39.02450981 112.11155144 39.04951477 111.20515442 C39.20936419 104.92418696 39.27340395 98.64695921 39.28686523 92.36401367 C39.30368578 90.03364665 39.34329116 87.7033096 39.40795898 85.3737793 C39.86724854 68.04400033 36.96517041 57.05563023 26.5619812 43.11135864 C24.56622939 40.41366431 22.81380604 37.62646596 21.0546875 34.76953125 C19.9957385 33.11658054 18.93587903 31.46421266 17.875 29.8125 C13.39852897 22.80703142 8.96948346 15.77567978 4.625 8.6875 C4.15433105 7.92219971 3.68366211 7.15689941 3.19873047 6.3684082 C0 1.1229036 0 1.1229036 0 0 Z " fill="none" stroke="#FFAB99" stroke-width="8" transform="translate(3430,1877)"/>
<path d="M0 0 C1.98 0 3.96 0 6 0 C6 35.31 6 70.62 6 107 C24.81 107 43.62 107 63 107 C63 108.98 63 110.96 63 113 C42.21 113 21.42 113 0 113 C0 75.71 0 38.42 0 0 Z " fill="#F09D9E" transform="translate(3051,1877)"/>
<path d="M0 0 C1.98 0 3.96 0 6 0 C6.06976561 11.26648634 6.12294552 22.53292058 6.15543652 33.79957962 C6.17103708 39.0321546 6.19217203 44.26458088 6.22631836 49.49707031 C6.25911293 54.55454707 6.27689511 59.61188153 6.28463173 64.66945648 C6.29013937 66.59099311 6.30089363 68.51252269 6.31719017 70.43399811 C6.53295076 96.94813021 6.53295076 96.94813021 -1.39453125 106.3828125 C-7.09434672 112.12423246 -13.52147651 114.2202202 -21.42114258 114.43115234 C-31.44613385 114.45847699 -38.23334679 113.35216163 -45.875 106.375 C-49.13537377 101.19675931 -52 95.20860873 -52 89 C-50.02 89 -48.04 89 -46 89 C-45.79246094 89.72445313 -45.58492187 90.44890625 -45.37109375 91.1953125 C-43.25302913 97.8419588 -41.10523786 102.35716577 -35 106 C-28.04300173 109.27454804 -20.79282346 108.94641649 -13.625 106.375 C-8.55739964 104.0700851 -5.39501079 101.26055539 -3.1575346 96.03090763 C-1.21870119 90.50747715 -0.55716307 85.64047484 -0.56762695 79.80834961 C-0.5574353 78.93896759 -0.54724365 78.06958557 -0.53674316 77.17385864 C-0.50682754 74.3332863 -0.49738027 71.49305234 -0.48828125 68.65234375 C-0.47141864 66.66979368 -0.45326629 64.6872542 -0.43388367 62.70472717 C-0.38654935 57.51151844 -0.356633 52.31835267 -0.33044434 47.125 C-0.30055495 41.81566897 -0.25405352 36.50648566 -0.20898438 31.19726562 C-0.12313988 20.79825462 -0.05571101 10.39921307 0 0 Z " fill="none" stroke="#FFAB99" stroke-width="8" transform="translate(2534,1877)"/>
</svg>
